<svg xmlns="http://www.w3.org/2000/svg" xmlns:xlink="http://www.w3.org/1999/xlink" width="920" height="1510" preserveAspectRatio="xMinYMin" viewBox="945 20 800 1990"><title>Data on the Web Challenges</title><style type="text/css">text{font-family:sans-serif;font-size:1em}text.leftCol,text.rightCol{fill:#005a9c;font-size:1.2em;text-anchor:end;cursor:pointer;text-decoration:underline}text.rightCol{text-anchor:start}.blueBoxText,.centreBox,.connectorLabel{text-anchor:middle;fill:#000;stroke:none}.centreBox{font-size:1.6em;font-weight:700}#svg{border:medium solid green}</style><script type="text/javascript"><![CDATA[

  var svgns = "http://www.w3.org/2000/svg";

  function initialise() {
    text = document.getElementsByTagNameNS(svgns,'text');
    if (text[0].addEventListener) {
      for (var i = 0; i < text.length; i++) {
        text[i].addEventListener("click", shift, false);
      }
    } else if (text[0].attachEvent)  {
      for (var i = 0; i < text.length; i++) {
        text[i].attachEvent('onclick', shift);
      }
    }
  }

  function shift() {
    parent.document.location.hash = this.id;
  }

  window.onload=initialise;
]]></script><defs><rect id="firstRect" width="170" height="110" x="60" y="10" fill="#bbf" stroke="#000" stroke-width="1"/><path id="leftConnector" stroke="#000" stroke-width="2" d="M 420 85 L 660 85"/><path id="rightConnector" stroke="#000" stroke-width="2" d="M 830 85 L 890 85"/><path id="RColLeftConnector" stroke="#000" stroke-width="2" d="M 460 85 L 520 85"/><path id="RColRightConnector" stroke="#000" stroke-width="2" d="M 680 85 L 920 85"/><path id="verticalConnector" stroke="#000" stroke-width="2" d="M 890 85 L 890 1806"/><path id="challengeToVert" stroke="#000" stroke-width="2" d="M -60 90 L 0 90"/></defs><g transform="translate(800,0)"><g id="BPsMetadata" transform="translate(925,5)"><text id="ProvideMetadata" x="10" y="55" class="rightCol">Provide metadata</text><text id="DescriptiveMetadata" x="10" y="85" class="rightCol">Provide descriptive metadata</text><text id="StructuralMetadata" x="10" y="115" class="rightCol">Provide structural metadata</text><path fill="none" stroke="#000" stroke-width="2" d="M 5,30 L -5,30 -5,130 10,130"/></g><g><use xlink:href="#RColLeftConnector"/><text x="800" y="75" class="connectorLabel">How do I provide metadata</text><text x="800" y="105" class="connectorLabel">for humans &amp; machines?</text><use xlink:href="#RColRightConnector"/></g><g transform="translate(450,20)"><use xlink:href="#firstRect"/><text x="140" y="70" class="blueBoxText">Metadata</text></g></g><g transform="translate(800,180)"><g id="BPsLicence" transform="translate(925,5)"><text id="DataLicense" x="10" y="43" class="rightCol">Provide data license information</text><path fill="none" stroke="#000" stroke-width="2" d="M 5,10 L -5,10 -5,75 10,75"/></g><g transform="translate(0,-35)"><use xlink:href="#RColLeftConnector"/><text x="800" y="75" class="connectorLabel">How do I permit</text><text x="800" y="105" class="connectorLabel">&amp; restrict access?</text><use xlink:href="#RColRightConnector"/></g><g transform="translate(450,-20)"><use xlink:href="#firstRect"/><text x="140" y="70" class="blueBoxText">Data License</text></g></g><g transform="translate(800,315)"><g id="BPsProv" transform="translate(925,5)"><text id="DataProvenance" x="10" y="30" class="rightCol">Provide data provenance information</text><text id="DataQuality" x="10" y="60" class="rightCol">Provide data quality information</text><path fill="none" stroke="#000" stroke-width="2" d="M 5,10 L -5,10 -5,75 10,75"/></g><g transform="translate(0,-35)"><use xlink:href="#RColLeftConnector"/><text x="800" y="75" class="connectorLabel">How can I add trust?</text><use xlink:href="#RColRightConnector"/></g><g transform="translate(450,-20)"><use xlink:href="#firstRect"/><text x="140" y="60" class="blueBoxText">Provenance</text><text x="140" y="90" class="blueBoxText">&amp; quality</text></g></g><g transform="translate(800,450)"><g id="BPsVersion" transform="translate(925,5)"><text id="VersioningInfo" x="10" y="30" class="rightCol">Provide a version indicator</text><text id="VersionHistory" x="10" y="60" class="rightCol">Provide version history</text><path fill="none" stroke="#000" stroke-width="2" d="M 5,0 L -5,0 -5,80 10,80"/></g><g transform="translate(0,-45)"><use xlink:href="#RColLeftConnector"/><text x="800" y="75" class="connectorLabel">How can I track</text><text x="800" y="105" class="connectorLabel">versions &amp; version histories?</text><use xlink:href="#RColRightConnector"/></g><g transform="translate(450,-20)"><use xlink:href="#firstRect"/><text x="140" y="70" class="blueBoxText">Data Versioning</text></g></g><g transform="translate(800,585)"><g id="BPsIdentification" transform="translate(925,5)"><text id="UniqueIdentifiers" x="10" y="5" class="rightCol">Use persistent URIs as identifiers of datasets</text><text id="identifiersWithinDatasets" x="10" y="35" class="rightCol">Use persistent URIs as identifiers within datasets</text><text id="VersionIdentifiers" x="10" y="65" class="rightCol">Assign URIs to dataset versions and series</text><path fill="none" stroke="#000" stroke-width="2" d="M 5,-20 L -5,-20 -5,85 10,85"/></g><g transform="translate(0,-30)"><use xlink:href="#RColLeftConnector"/><text x="800" y="75" class="connectorLabel">How can I identify</text><text x="800" y="105" class="connectorLabel">datasets &amp; distributions?</text><use xlink:href="#RColRightConnector"/></g><g transform="translate(450,-20)"><use xlink:href="#firstRect"/><text x="140" y="70" class="blueBoxText">Data Identification</text></g></g><g transform="translate(800,680)"><g id="BPsDataFormats" transform="translate(925,20)"><text id="MachineReadableStandardizedFormat" x="10" y="30" class="rightCol">Use machine-readable, standardized formats</text><text id="LocaleParametersMetadata" x="10" y="60" class="rightCol">Use locale-neutral data representations</text><text id="MultipleFormats" x="10" y="90" class="rightCol">Provide data in multiple formats</text><path fill="none" stroke="#000" stroke-width="2" d="M 5,10 L -5,10 -5,105 10,105"/></g><g><use xlink:href="#RColLeftConnector"/><text x="800" y="75" class="connectorLabel">What data formats</text><text x="800" y="105" class="connectorLabel">should I use?</text><use xlink:href="#RColRightConnector"/></g><g transform="translate(450,20)"><use xlink:href="#firstRect"/><text x="140" y="70" class="blueBoxText">Data Formats</text></g></g><g transform="translate(800,820)"><g id="BPsDataVocab" transform="translate(925,20)"><text id="ReuseVocabularies" x="10" y="55" class="rightCol">Reuse vocabularies, preferably standardized ones</text><text id="ChooseRightFormalizationLevel" x="10" y="85" class="rightCol">Choose the right formalization level</text><path fill="none" stroke="#000" stroke-width="2" d="M 5,30 L -5,30 -5,100 10,100"/></g><g><use xlink:href="#RColLeftConnector"/><text x="800" y="75" class="connectorLabel">How to improve</text><text x="800" y="105" class="connectorLabel">data interoperability?</text><use xlink:href="#RColRightConnector"/></g><g transform="translate(450,20)"><use xlink:href="#firstRect"/><text x="140" y="70" class="blueBoxText">Data Vocabularies</text></g></g><g transform="translate(800,1070)"><g id="BPsAccess" transform="translate(925,-90)"><text id="BulkAccess" x="10" y="30" class="rightCol">Provide bulk download</text><text id="ProvideSubsets" x="10" y="60" class="rightCol">Provide Subsets for Large Datasets</text><text id="Conneg" x="10" y="90" class="rightCol">Use content negotiation</text><text id="AccessRealTime" x="10" y="120" class="rightCol">Provide real time access</text><text id="AccessUptoDate" x="10" y="150" class="rightCol">Provide data up to date</text><text id="DataUnavailabilityReference" x="10" y="180" class="rightCol">Provide an explanation for data that&apos;s not available</text><text id="useanAPI" x="10" y="210" class="rightCol">Make Data Available through an API</text><text id="APIHttpVerbs" x="10" y="240" class="rightCol">Use Web Standards as the foundation of APIs</text><text id="documentYourAPI" x="10" y="270" class="rightCol">Provide complete documentation for your API</text><text id="avoidBreakingChangesAPI" x="10" y="300" class="rightCol">Avoid Breaking Changes to Your API</text><path fill="none" stroke="#000" stroke-width="2" d="M 10,0 L -5,0 -5,312 10,312"/></g><g transform="translate(0,-30)"><use xlink:href="#RColLeftConnector"/><text x="800" y="75" class="connectorLabel">How can I provide</text><text x="800" y="105" class="connectorLabel">access to data?</text><use xlink:href="#RColRightConnector"/></g><g transform="translate(450,-20)"><use xlink:href="#firstRect"/><text x="140" y="70" class="blueBoxText">Data Access</text></g></g><g transform="translate(800,1325)"><g id="BPsDataPreservation" transform="translate(925,20)"><text id="ResourceStatus" x="10" y="30" class="rightCol">Preserve identifiers</text><text id="EvaluateCoverage" x="10" y="60" class="rightCol">Assess dataset coverage</text><path fill="none" stroke="#000" stroke-width="2" d="M 10,0 L -5,0 -5,80 10,80"/></g><g transform="translate(0,-30)"><use xlink:href="#RColLeftConnector"/><text x="800" y="75" class="connectorLabel">How can data be</text><text x="800" y="105" class="connectorLabel">be archived?</text><use xlink:href="#RColRightConnector"/></g><g transform="translate(450,-20)"><use xlink:href="#firstRect"/><text x="140" y="70" class="blueBoxText">Data Preservation</text></g></g><g transform="translate(800,1468)"><g id="BPsDataPreservation" transform="translate(925,0)"><text id="GatherFeedback" x="10" y="30" class="rightCol">Gather feedback from data consumers</text><text id="FeedbackInformation" x="10" y="60" class="rightCol">Make feedback available</text><path fill="none" stroke="#000" stroke-width="2" d="M 10,0 L -5,0 -5,90 10,90"/></g><g transform="translate(0,-30)"><use xlink:href="#RColLeftConnector"/><text x="800" y="75" class="connectorLabel">How can I</text><text x="800" y="105" class="connectorLabel">engage users?</text><use xlink:href="#RColRightConnector"/></g><g transform="translate(450,-20)"><use xlink:href="#firstRect"/><text x="140" y="70" class="blueBoxText">Feedback</text></g></g><g transform="translate(800,1610)"><g id="BPsEnrichment" transform="translate(925,0)"><text id="EnrichData" x="10" y="30" class="rightCol">Enrich data by generating new data</text><text id="ProvideComplementaryPresentations" x="10" y="60" class="rightCol">Provide Complementary Presentations</text><path fill="none" stroke="#000" stroke-width="2" d="M 10,0 L -5,0 -5,90 10,90"/></g><g transform="translate(0,-30)"><use xlink:href="#RColLeftConnector"/><text x="800" y="75" class="connectorLabel">How can I add</text><text x="800" y="105" class="connectorLabel">value to data?</text><use xlink:href="#RColRightConnector"/></g><g transform="translate(450,-20)"><use xlink:href="#firstRect"/><text x="140" y="70" class="blueBoxText">Data Enrichment</text></g></g><g transform="translate(800,1750)"><g id="BPsReuse" transform="translate(925,0)"><text id="ProvideFeedbackToPublisher" x="10" y="30" class="rightCol">Provide Feedback to the Original Publisher</text><text id="FollowLicensingTerms" x="10" y="60" class="rightCol">Follow Licensing Terms</text><text id="CiteOriginalPublication" x="10" y="90" class="rightCol">Cite the Original Publication</text><path fill="none" stroke="#000" stroke-width="2" d="M 10,0 L -5,0 -5,110 10,110"/></g><g transform="translate(0,-30)"><use xlink:href="#RColLeftConnector"/><text x="800" y="75" class="connectorLabel">How can I reuse</text><text x="800" y="105" class="connectorLabel">data responsibly?</text><use xlink:href="#RColRightConnector"/></g><g transform="translate(450,-20)"><use xlink:href="#firstRect"/><text x="140" y="70" class="blueBoxText">Data Republication</text></g></g><g transform="translate(950,850)"><rect id="CentreRect" width="250" height="180" x="0" y="0" fill="#bbf" stroke="#000" stroke-width="1"/><text x="125" y="84" class="centreBox">Data on the Web</text><text x="125" y="114" class="centreBox">Challenges</text><use transform="translate(310,0)" xlink:href="#challengeToVert"/></g><use transform="translate(370,0)" xlink:href="#verticalConnector"/></svg>